
        <svg xmlns="http://www.w3.org/2000/svg" xmlns:xlink="http://www.w3.org/1999/xlink" version="1.1" width="3162.251474599231" 
        height="850.9437565267774" viewBox="0 0 3162.251474599231 850.9437565267774">
			
			<g transform="scale(8.112573729961548) translate(10, 10)">
				<defs id="SvgjsDefs2063"><linearGradient id="SvgjsLinearGradient2068"><stop id="SvgjsStop2069" stop-color="#00ff8f" offset="0"></stop><stop id="SvgjsStop2070" stop-color="#00a1ff" offset="1"></stop></linearGradient></defs><g id="SvgjsG2064" featureKey="QMusi1-0" transform="matrix(1.326210292889439,0,0,1.326210292889439,0,39)" fill="url(#SvgjsLinearGradient2068)"><path xmlns="http://www.w3.org/2000/svg" fill="url(#SvgjsLinearGradient2068)" d="M300.414214,90 L312.707107,102.292893 C313.097631,102.683418 313.097631,103.316582 312.707107,103.707107 C312.316582,104.097631 311.683418,104.097631 311.292893,103.707107 L298.292893,90.7071068 C297.902369,90.3165825 297.902369,89.6834175 298.292893,89.2928932 L311.292893,76.2928932 C311.683418,75.9023689 312.316582,75.9023689 312.707107,76.2928932 C313.097631,76.6834175 313.097631,77.3165825 312.707107,77.7071068 L300.414214,90 Z M330,94 C327.790861,94 326,92.209139 326,90 C326,87.790861 327.790861,86 330,86 C332.209139,86 334,87.790861 334,90 C334,92.209139 332.209139,94 330,94 Z M330,92 C331.104569,92 332,91.1045695 332,90 C332,88.8954305 331.104569,88 330,88 C328.895431,88 328,88.8954305 328,90 C328,91.1045695 328.895431,92 330,92 Z M342,94 C339.790861,94 338,92.209139 338,90 C338,87.790861 339.790861,86 342,86 C344.209139,86 346,87.790861 346,90 C346,92.209139 344.209139,94 342,94 Z M342,92 C343.104569,92 344,91.1045695 344,90 C344,88.8954305 343.104569,88 342,88 C340.895431,88 340,88.8954305 340,90 C340,91.1045695 340.895431,92 342,92 Z M318,94 C315.790861,94 314,92.209139 314,90 C314,87.790861 315.790861,86 318,86 C320.209139,86 322,87.790861 322,90 C322,92.209139 320.209139,94 318,94 Z M318,92 C319.104569,92 320,91.1045695 320,90 C320,88.8954305 319.104569,88 318,88 C316.895431,88 316,88.8954305 316,90 C316,91.1045695 316.895431,92 318,92 Z M360.585786,90 L348.292893,77.7071068 C347.902369,77.3165825 347.902369,76.6834175 348.292893,76.2928932 C348.683418,75.9023689 349.316582,75.9023689 349.707107,76.2928932 L362.707107,89.2928932 C363.097631,89.6834175 363.097631,90.3165825 362.707107,90.7071068 L349.707107,103.707107 C349.316582,104.097631 348.683418,104.097631 348.292893,103.707107 C347.902369,103.316582 347.902369,102.683418 348.292893,102.292893 L360.585786,90 Z" transform="translate(-298 -76)"></path></g><g id="SvgjsG2065" featureKey="UyNsn2-0" transform="matrix(3.754574156444717,0,0,3.754574156444717,104.72344510906647,9.199666477803788)" fill="#ffffff"><path d="M1.58 12.059999999999999 l-1.24 0 l0 -2.52 l1.24 0 l0 -2.84 l3 0 l0 2.84 l2.48 0 l-1.4 2.52 l-1.18 0 l0.1 0.64 l0 3.14 c0 0.34666 0.02334 0.62666 0.07 0.84 s0.12 0.38 0.22 0.5 s0.22666 0.20334 0.38 0.25 s0.33 0.07 0.53 0.07 c0.14666 0 0.32666 -0.01666 0.54 -0.05 s0.44 -0.07 0.68 -0.11 l0.16 1.34 l0.12 1.2 c-0.38666 0.08 -0.74 0.14 -1.06 0.18 s-0.64666 0.06 -0.98 0.06 c-1.24 0 -2.16 -0.28666 -2.76 -0.86 s-0.9 -1.52 -0.9 -2.84 l0 -4.36 z M12.879999999999999 9.44 c0.69334 0 1.3166 0.096622 1.87 0.28996 s1.0167 0.50668 1.39 0.94002 s0.66 0.99 0.86 1.67 s0.3 1.5 0.3 2.46 l0 0.31 l-0.04 0.63 l-5.6 0 l-0.42 -0.06 c0.01334 0.38666 0.05668 0.69666 0.13002 0.93 s0.18 0.41668 0.32 0.55002 s0.31 0.22668 0.51 0.28002 s0.42666 0.08668 0.68 0.10002 c0.41334 0.02666 0.77 -0.03334 1.07 -0.18 s0.58334 -0.44666 0.85 -0.9 c0.41334 0.13334 0.79334 0.26 1.14 0.38 c0.29334 0.10666 0.56 0.2 0.8 0.28 s0.36 0.11334 0.36 0.1 c-0.48 1 -1.0633 1.73 -1.75 2.19 s-1.51 0.69 -2.47 0.69 c-0.70666 0 -1.3467 -0.09334 -1.92 -0.28 s-1.06 -0.49 -1.46 -0.91 s-0.71 -0.96666 -0.93 -1.64 s-0.33 -1.4967 -0.33 -2.47 c0 -0.94666 0.11 -1.7567 0.33 -2.43 s0.53 -1.2267 0.93 -1.66 s0.88666 -0.75334 1.46 -0.96 s1.2133 -0.31 1.92 -0.31 z M13.98 13.440000000000001 l0.30004 0.04 c-0.02666 -0.46666 -0.15 -0.83 -0.37 -1.09 s-0.56334 -0.39 -1.03 -0.39 c-0.53334 0 -0.91668 0.13 -1.15 0.39 s-0.37668 0.62334 -0.43002 1.09 c0.06666 -0.01334 0.12666 -0.02334 0.18 -0.03 s0.11334 -0.01 0.18 -0.01 l2.32 0 z M27.880000000000003 5.98 l0.000019531 13.74 c-0.48 0.10666 -0.94666 0.18666 -1.4 0.24 s-0.86668 0.09334 -1.24 0.12 s-0.69334 0.04 -0.96 0.04 l-0.54 0 c-0.90666 0 -1.67 -0.14 -2.29 -0.42 s-1.12 -0.66 -1.5 -1.14 s-0.65666 -1.0367 -0.83 -1.67 s-0.26 -1.31 -0.26 -2.03 c0 -0.92 0.11666 -1.71 0.35 -2.37 s0.56 -1.2033 0.98 -1.63 s0.92 -0.74332 1.5 -0.94998 s1.2233 -0.31 1.93 -0.31 c0.12 0 0.25666 0.01 0.41 0.03 s0.3 0.04334 0.44 0.07 s0.27 0.05666 0.39 0.09 s0.21334 0.07 0.28 0.11 l0 -1.18 l0.06 -0.26 l-1.8 0 l1.34 -2.48 l3.14 0 z M24.060000000000002 17.44 c0.2 0 0.39334 -0.0066602 0.58 -0.02 s0.35332 -0.03334 0.49998 -0.06 l0 -5.12 c-0.09334 -0.01334 -0.2 -0.03334 -0.32 -0.06 c-0.10666 -0.02666 -0.23 -0.04666 -0.37 -0.06 s-0.29666 -0.02 -0.47 -0.02 c-0.62666 0 -1.1533 0.21334 -1.58 0.64 s-0.64 1.1333 -0.64 2.12 c0 0.49334 0.06 0.90668 0.18 1.24 s0.28334 0.6 0.49 0.8 s0.45 0.34 0.73 0.42 s0.58 0.12 0.9 0.12 z M32.339999999999996 15.68 c-0.72 -0.21334 -1.3133 -0.53998 -1.78 -0.97998 s-0.7 -1.0733 -0.7 -1.9 c0 -1.04 0.36666 -1.8533 1.1 -2.44 s1.7467 -0.88 3.04 -0.88 c0.49334 0 1.0033 0.05334 1.53 0.16 s1.1833 0.3 1.97 0.58 l-1.2 2.16 c-0.41334 -0.14666 -0.77 -0.25666 -1.07 -0.33 s-0.64334 -0.11 -1.03 -0.11 c-0.36 0 -0.64334 0.05 -0.85 0.15 s-0.31 0.26334 -0.31 0.49 c0 0.18666 0.07666 0.32 0.23 0.4 s0.35668 0.16666 0.61002 0.26 l1.08 0.32 c0.36 0.10666 0.69666 0.23332 1.01 0.37998 s0.58 0.33 0.8 0.55 s0.39334 0.49666 0.52 0.83 s0.19 0.74 0.19 1.22 c0 0.50666 -0.10334 0.97666 -0.31 1.41 s-0.50666 0.81 -0.9 1.13 s-0.87334 0.57 -1.44 0.75 s-1.21 0.27 -1.93 0.27 c-0.28 0 -0.55 -0.01 -0.81 -0.03 s-0.51666 -0.05334 -0.77 -0.1 s-0.52 -0.11 -0.8 -0.19 s-0.58 -0.17334 -0.9 -0.28 c0.02666 -0.09334 0.05332 -0.2 0.07998 -0.32 s0.06666 -0.27 0.12 -0.45 s0.11334 -0.39666 0.18 -0.65 s0.15332 -0.56668 0.25998 -0.94002 c0.56 0.14666 1.03 0.25332 1.41 0.31998 s0.76334 0.1 1.15 0.1 c0.16 0 0.33 -0.01334 0.51 -0.04 s0.35 -0.07332 0.51 -0.13998 s0.29334 -0.15332 0.4 -0.25998 s0.16 -0.24666 0.16 -0.42 c0 -0.2 -0.07 -0.34 -0.21 -0.42 s-0.35 -0.16666 -0.63 -0.26 z M44.660000000000004 5.539999999999999 l3.02 0.000019531 l0 10.3 c0 0.34666 0.02 0.62666 0.06 0.84 s0.10334 0.38 0.19 0.5 s0.19666 0.2 0.33 0.24 s0.29334 0.06 0.48 0.06 c0.09334 0 0.2 -0.0033398 0.32 -0.01 s0.32 -0.03666 0.6 -0.09 l0.18 2.5 c-0.34666 0.10666 -0.67 0.17332 -0.97 0.19998 s-0.57 0.04 -0.81 0.04 c-1.0667 0 -1.9 -0.29 -2.5 -0.87 s-0.9 -1.5233 -0.9 -2.83 l0 -10.88 z M56.24000000000001 15.42 c-0.13334 -0.02666 -0.2733 -0.04338 -0.41996 -0.050038 s-0.27332 -0.01 -0.37998 -0.01 c-0.56 0 -1.0133 0.08666 -1.36 0.26 s-0.52 0.47334 -0.52 0.9 c0 0.26666 0.06334 0.47666 0.19 0.63 s0.28332 0.26668 0.46998 0.34002 s0.38332 0.11668 0.58998 0.13002 s0.38332 0.02 0.52998 0.02 c0.26666 0 0.56666 -0.03334 0.9 -0.1 l0 -2.12 z M55.2 13.219999999999999 c0.10666 0 0.24996 0.0033594 0.42996 0.01002 s0.38334 0.01666 0.61 0.03 c-0.01334 -0.52 -0.19668 -0.85666 -0.55002 -1.01 s-0.81 -0.23 -1.37 -0.23 c-0.30666 0 -0.66 0.03666 -1.06 0.11 s-0.83334 0.18334 -1.3 0.33 l-0.32 -1.1 c-0.04 -0.14666 -0.09666 -0.36 -0.17 -0.64 s-0.12334 -0.5 -0.15 -0.66 c0.66666 -0.22666 1.2967 -0.39 1.89 -0.49 s1.13 -0.15 1.61 -0.15 c1.4133 0 2.5066 0.33666 3.28 1.01 s1.16 1.75 1.16 3.23 l0 5.86 c-0.52 0.14666 -1.12 0.29 -1.8 0.43 s-1.4133 0.21 -2.2 0.21 c-0.69334 0 -1.3233 -0.06 -1.89 -0.18 s-1.0533 -0.32 -1.46 -0.6 s-0.72 -0.64666 -0.94 -1.1 s-0.33 -1.0067 -0.33 -1.66 s0.13666 -1.2 0.41 -1.64 s0.62668 -0.79 1.06 -1.05 s0.92 -0.44334 1.46 -0.55 s1.0833 -0.16 1.63 -0.16 z M64.44 5.960000000000001 l-0.000019531 3.46 l-0.1 0.42 c0 -0.01334 0.13334 -0.05668 0.4 -0.13002 s0.63332 -0.11 1.1 -0.11 c0.69334 0 1.3333 0.10334 1.92 0.31 s1.09 0.52332 1.51 0.94998 s0.74666 0.97 0.98 1.63 s0.35 1.45 0.35 2.37 c0 0.72 -0.08334 1.3967 -0.25 2.03 s-0.44332 1.19 -0.82998 1.67 s-0.89332 0.86 -1.52 1.14 s-1.4 0.42 -2.32 0.42 l-0.53 0 l-0.94 -0.04 l-1.23 -0.12 l-1.4 -0.24 l0 -11.3 l-1.66 0 l1.28 -2.44 z M65.4 17.44 c0.32 0 0.62338 -0.039942 0.91004 -0.11994 s0.53332 -0.22 0.73998 -0.42 s0.37332 -0.46666 0.49998 -0.8 s0.19 -0.74668 0.19 -1.24 s-0.06 -0.91668 -0.18 -1.27 s-0.28 -0.64 -0.48 -0.86 s-0.43666 -0.38 -0.71 -0.48 s-0.56334 -0.15 -0.87 -0.15 c-0.16 0 -0.34666 0.01334 -0.56 0.04 s-0.38 0.05332 -0.5 0.07998 l0 5.14 c0.14666 0.02666 0.29666 0.04666 0.45 0.06 s0.32334 0.02 0.51 0.02 z"></path></g>
			</g>
		</svg>
	