<?xml version="1.0" encoding="UTF-8" standalone="no"?>
<svg xmlns="http://www.w3.org/2000/svg" xmlns:xlink="http://www.w3.org/1999/xlink" style="isolation:isolate"
     viewBox="0 0 311 98">
  <defs>
    <clipPath id="_clipPath_ej98HGVB1vzT5YenpE0z004CfpMd5bku">
      <rect width="311" height="98"/>
    </clipPath>
  </defs>
  <g clip-path="url(#_clipPath_ej98HGVB1vzT5YenpE0z004CfpMd5bku)">
    <g clip-path="url(#_clipPath_0gFKOJLYr7WDP8SVwSN8xU1jvzGH8Ta3)">
      <text transform="matrix(1,0,0,1,85.333,69.853)"
            style="font-family:'Helvetica';font-weight:400;font-size:55px;font-style:normal;fill:#ffffff;stroke:none;">Teds
        Lab
      </text>
    </g>
    <defs>
      <clipPath id="_clipPath_0gFKOJLYr7WDP8SVwSN8xU1jvzGH8Ta3">
        <rect x="0" y="0" width="225.667" height="73.906" transform="matrix(1,0,0,1,85.333,11.953)"/>
      </clipPath>
    </defs>
    <defs>
      <linearGradient id="_lgradient_0" x1="0.5" y1="1" x2="0.5000000000000001" y2="0">
        <stop offset="0%" style="stop-color:#8128D9"/>
        <stop offset="100%" style="stop-color:#A34DF9"/>
      </linearGradient>
    </defs>
    <path d="M 5.135 0 L 73.865 0 C 76.699 0 79 2.301 79 5.135 L 79 92.865 C 79 95.699 76.699 98 73.865 98 L 5.135 98 C 2.301 98 0 95.699 0 92.865 L 0 5.135 C 0 2.301 2.301 0 5.135 0 Z"
          style="stroke:none;fill:url(#_lgradient_0);stroke-miterlimit:10;"/>
    <g>
      <path d=" M 38.747 7 C 21.227 7 7 21.227 7 38.747 C 7 51.233 14.282 61.948 24.778 67.127 L 24.778 79.384 C 24.778 82.876 27.636 85.733 31.128 85.733 L 32.527 85.733 C 33.122 88.619 35.692 90.813 38.747 90.813 C 41.803 90.813 44.373 88.619 44.967 85.733 L 46.366 85.733 C 49.859 85.733 52.716 82.876 52.716 79.384 L 52.716 67.127 C 63.213 61.948 70.494 51.233 70.494 38.747 C 70.494 21.227 56.268 7 38.747 7 Z  M 38.747 9.54 C 54.894 9.54 67.955 22.601 67.955 38.747 C 67.955 50.544 60.965 60.682 50.915 65.295 L 50.176 65.633 L 50.176 67.955 L 43.827 67.955 L 43.827 42.299 C 45.994 41.719 47.636 39.819 47.636 37.477 C 47.636 34.684 45.351 32.398 42.557 32.398 C 41.02 32.398 39.679 33.132 38.747 34.224 C 37.815 33.132 36.474 32.398 34.938 32.398 C 32.144 32.398 29.858 34.684 29.858 37.477 C 29.858 39.819 31.5 41.719 33.668 42.299 L 33.668 67.955 L 27.318 67.955 L 27.318 65.633 L 26.579 65.295 C 16.529 60.682 9.54 50.544 9.54 38.747 C 9.54 22.601 22.601 9.54 38.747 9.54 Z  M 38.747 13.349 C 38.049 13.349 37.477 13.921 37.477 14.619 C 37.477 15.318 38.049 15.889 38.747 15.889 C 39.446 15.889 40.017 15.318 40.017 14.619 C 40.017 13.921 39.446 13.349 38.747 13.349 Z  M 32.551 14.172 C 32.424 14.167 32.297 14.183 32.174 14.218 C 31.73 14.33 31.381 14.672 31.26 15.113 C 31.14 15.555 31.266 16.027 31.591 16.349 C 31.916 16.671 32.389 16.794 32.829 16.669 C 33.155 16.583 33.432 16.37 33.601 16.079 C 33.769 15.787 33.815 15.441 33.727 15.116 C 33.586 14.577 33.108 14.193 32.551 14.172 Z  M 44.977 14.172 C 44.407 14.177 43.911 14.564 43.767 15.116 C 43.586 15.793 43.989 16.488 44.665 16.668 C 45.342 16.849 46.037 16.447 46.218 15.77 C 46.307 15.445 46.261 15.098 46.093 14.807 C 45.924 14.515 45.646 14.303 45.32 14.218 C 45.208 14.188 45.093 14.172 44.977 14.172 L 44.977 14.172 Z  M 26.653 16.584 C 26.205 16.595 25.796 16.841 25.576 17.232 C 25.356 17.622 25.358 18.1 25.581 18.489 C 25.751 18.776 26.028 18.989 26.356 19.079 C 26.678 19.168 27.026 19.124 27.318 18.95 C 27.612 18.785 27.825 18.507 27.909 18.181 C 27.999 17.856 27.952 17.508 27.779 17.219 C 27.548 16.817 27.117 16.574 26.654 16.584 L 26.653 16.584 Z  M 50.751 16.584 C 50.32 16.603 49.928 16.843 49.715 17.219 C 49.546 17.509 49.5 17.855 49.586 18.18 C 49.673 18.505 49.885 18.782 50.176 18.95 C 50.467 19.119 50.812 19.165 51.137 19.078 C 51.462 18.992 51.739 18.78 51.907 18.489 C 52.079 18.199 52.126 17.851 52.037 17.526 C 51.952 17.199 51.739 16.92 51.446 16.751 C 51.236 16.63 50.994 16.571 50.751 16.584 Z  M 21.703 20.413 C 21.359 20.406 21.029 20.543 20.79 20.79 C 20.552 21.027 20.418 21.349 20.418 21.685 C 20.418 22.021 20.552 22.343 20.79 22.58 C 21.027 22.818 21.349 22.952 21.685 22.952 C 22.021 22.952 22.343 22.818 22.58 22.58 C 22.818 22.343 22.952 22.021 22.952 21.685 C 22.952 21.349 22.818 21.027 22.58 20.79 C 22.348 20.555 22.034 20.42 21.704 20.413 L 21.703 20.413 Z  M 55.826 20.413 C 55.482 20.408 55.15 20.544 54.909 20.79 C 54.485 21.219 54.421 21.888 54.757 22.389 C 55.094 22.891 55.736 23.086 56.295 22.857 C 56.853 22.628 57.173 22.037 57.059 21.444 C 56.946 20.851 56.431 20.42 55.827 20.413 L 55.826 20.413 Z  M 59.61 25.413 C 59.046 25.429 58.559 25.811 58.41 26.356 C 58.325 26.681 58.372 27.027 58.54 27.318 C 58.709 27.61 58.987 27.824 59.314 27.909 C 59.636 27.998 59.983 27.953 60.276 27.779 C 60.567 27.611 60.779 27.334 60.865 27.009 C 60.952 26.685 60.905 26.339 60.737 26.048 C 60.507 25.646 60.075 25.402 59.611 25.413 L 59.61 25.413 Z  M 17.794 25.413 C 17.229 25.436 16.748 25.83 16.614 26.379 C 16.481 26.929 16.727 27.5 17.219 27.779 C 17.509 27.948 17.855 27.994 18.18 27.908 C 18.505 27.821 18.782 27.609 18.95 27.318 C 19.119 27.028 19.165 26.682 19.078 26.357 C 18.992 26.032 18.78 25.755 18.489 25.587 C 18.279 25.464 18.037 25.404 17.794 25.413 Z  M 15.432 31.232 C 14.862 31.237 14.365 31.623 14.218 32.174 C 14.129 32.499 14.174 32.846 14.343 33.138 C 14.511 33.43 14.79 33.642 15.116 33.727 C 15.793 33.908 16.488 33.506 16.668 32.829 C 16.849 32.152 16.447 31.457 15.77 31.276 C 15.66 31.247 15.547 31.232 15.433 31.232 L 15.432 31.232 Z  M 34.938 34.938 C 36.356 34.938 37.477 36.059 37.477 37.477 L 40.017 37.477 C 40.017 36.059 41.138 34.938 42.557 34.938 C 43.975 34.938 45.097 36.059 45.097 37.477 C 45.097 38.896 43.975 40.017 42.557 40.017 L 41.287 40.017 L 41.287 67.955 L 36.207 67.955 L 36.207 40.017 L 34.938 40.017 C 33.519 40.017 32.398 38.896 32.398 37.477 C 32.398 36.059 33.519 34.938 34.938 34.938 Z  M 14.619 37.477 C 13.921 37.477 13.349 38.049 13.349 38.747 C 13.349 39.446 13.921 40.017 14.619 40.017 C 15.318 40.017 15.889 39.446 15.889 38.747 C 15.889 38.049 15.318 37.477 14.619 37.477 Z  M 62.875 37.477 C 62.177 37.477 61.605 38.049 61.605 38.747 C 61.605 39.446 62.177 40.017 62.875 40.017 C 63.573 40.017 64.145 39.446 64.145 38.747 C 64.145 38.049 63.573 37.477 62.875 37.477 Z  M 15.452 43.723 C 15.423 43.723 15.393 43.723 15.358 43.728 C 14.935 43.752 14.553 43.989 14.342 44.358 C 14.172 44.648 14.126 44.995 14.213 45.32 C 14.302 45.648 14.515 45.925 14.803 46.095 C 15.248 46.354 15.806 46.319 16.215 46.006 C 16.624 45.693 16.803 45.163 16.669 44.666 C 16.521 44.114 16.024 43.728 15.452 43.723 Z  M 62.042 43.728 C 61.384 43.731 60.837 44.238 60.784 44.894 C 60.73 45.55 61.186 46.138 61.835 46.249 C 62.484 46.36 63.11 45.957 63.278 45.32 C 63.38 44.938 63.297 44.53 63.055 44.218 C 62.812 43.905 62.437 43.724 62.042 43.728 Z  M 17.819 49.541 C 17.29 49.555 16.825 49.896 16.653 50.397 C 16.481 50.898 16.638 51.453 17.047 51.789 C 17.456 52.126 18.031 52.173 18.489 51.907 C 18.779 51.739 18.991 51.462 19.078 51.137 C 19.164 50.812 19.118 50.467 18.95 50.176 C 18.721 49.77 18.285 49.525 17.819 49.541 Z  M 59.581 49.546 C 59.149 49.567 58.758 49.804 58.54 50.176 C 58.188 50.786 58.4 51.56 59.006 51.912 C 59.297 52.081 59.643 52.127 59.968 52.04 C 60.293 51.952 60.57 51.738 60.737 51.446 C 60.969 51.045 60.964 50.549 60.723 50.153 C 60.482 49.757 60.044 49.524 59.581 49.546 Z  M 21.703 54.542 C 21.361 54.536 21.031 54.67 20.79 54.913 C 20.552 55.15 20.418 55.472 20.418 55.808 C 20.418 56.144 20.552 56.466 20.79 56.703 C 21.027 56.941 21.349 57.075 21.685 57.075 C 22.021 57.075 22.343 56.941 22.58 56.703 C 22.818 56.466 22.952 56.144 22.952 55.808 C 22.952 55.472 22.818 55.15 22.58 54.913 C 22.35 54.676 22.034 54.542 21.704 54.542 L 21.703 54.542 Z  M 55.826 54.542 C 55.482 54.532 55.15 54.667 54.909 54.913 C 54.546 55.276 54.437 55.822 54.634 56.297 C 54.83 56.771 55.293 57.081 55.807 57.081 C 56.32 57.081 56.784 56.771 56.98 56.297 C 57.177 55.822 57.068 55.276 56.705 54.913 C 56.473 54.677 56.157 54.543 55.826 54.541 L 55.826 54.542 Z  M 50.777 58.371 C 50.215 58.388 49.73 58.771 49.582 59.313 C 49.451 59.809 49.631 60.335 50.039 60.647 C 50.447 60.958 51.002 60.994 51.446 60.737 C 51.737 60.568 51.949 60.291 52.035 59.966 C 52.121 59.642 52.075 59.296 51.906 59.006 C 51.674 58.603 51.24 58.359 50.776 58.371 L 50.777 58.371 Z  M 26.624 58.376 C 26.061 58.402 25.583 58.796 25.45 59.343 C 25.317 59.891 25.561 60.46 26.048 60.742 C 26.339 60.912 26.686 60.959 27.011 60.871 C 27.337 60.784 27.613 60.569 27.779 60.276 C 28.012 59.875 28.006 59.379 27.766 58.982 C 27.525 58.586 27.087 58.354 26.624 58.376 Z  M 27.318 70.494 L 50.176 70.494 L 50.176 73.034 L 34.938 73.034 L 34.938 75.574 L 50.176 75.574 L 50.176 78.114 L 34.938 78.114 L 34.938 80.653 L 49.942 80.653 C 49.427 82.137 48.038 83.193 46.366 83.193 L 31.128 83.193 C 29.515 83.2 28.077 82.178 27.552 80.653 L 32.398 80.653 L 32.398 78.114 L 27.318 78.114 L 27.318 75.574 L 32.398 75.574 L 32.398 73.034 L 27.318 73.034 L 27.318 70.494 Z  M 35.171 85.733 L 42.323 85.733 C 41.808 87.216 40.418 88.273 38.747 88.273 C 37.134 88.279 35.696 87.258 35.171 85.733 Z "
            fill="rgb(255,255,255)"/>
    </g>
  </g>
</svg>